<svg xmlns="http://www.w3.org/2000/svg" xmlns:xlink="http://www.w3.org/1999/xlink" viewBox="0 0 128 128" xmlns:v="https://vecta.io/nano"><style><![CDATA[.L{stroke-width:4}.M{stroke-linecap:round}.N{stroke-miterlimit:10}.O{stroke:#1d1952}.P{stroke-linejoin:round}]]></style><g fill="none" class="L M N O"><path d="M12,65.4V93c0,8.3,6.7,15,15,15h0"/><path d="M27 108c3-2 3-8 3-8m4 6l-4.6.8M33 109l-4.6-1.2M31 112c-2.3-.7-2.4-1.1-4-4"/></g><path d="M99 17c-23-7-35 10-35 10S52 10 29 17C0 25.8-3 64 22 86c19.1 16.8 33.5 23.7 39.3 26 1.8.7 3.7.7 5.5 0 5.8-2.3 20.2-9.2 39.3-26C131 64 128 25.8 99 17z" fill="#f73959"/><path d="M120.3 36.3c2.6 14.2-2.7 30.8-16.3 42.7-7.9 6.9-15.9 12.6-22.7 16.8-10.3 6.5-23.3 6.9-34.1 1.3C38.8 92.8 28.7 86.7 20 79 13.3 73.1 8.7 66.1 6 58.8c2 9.7 7.3 19.5 16 27.2 19.1 16.8 33.5 23.7 39.3 26 1.8.7 3.7.7 5.5 0 5.8-2.3 20.2-9.2 39.3-26 15.7-13.9 20.3-34.4 14.2-49.7z" opacity=".5" fill="#c02344"/><path d="M98.7 25.4c4.8 1.9 8.7 4.9 11.5 8.9m-22-11c.9 0 1.9.1 2.8.2m-49.3-.1c5.1.4 9 2.4 11.6 4.3m-22-3l2.1-.6" fill="none" stroke="#fff" class="L M N P"/><path d="M38.3 71h0a15.88 15.88 0 0 1-15.9-15.9v-5.9c0-3.4 2.8-6.1 6.1-6.1h19.6c3.4 0 6.1 2.8 6.1 6.1v5.9A15.88 15.88 0 0 1 38.3 71zm43.4 0h0a15.88 15.88 0 0 1-15.9-15.9v-5.9c0-3.4 2.8-6.1 6.1-6.1h19.6c3.4 0 6.1 2.8 6.1 6.1v5.9c.1 8.8-7.1 15.9-15.9 15.9z" fill="#1d1952"/><g fill="none" class="L N"><path d="M50.3 51.6s4.3-4.3 9.7-4.3 10.8 4.3 10.8 4.3" class="O"/><path d="M31 52l10.5 10.5M43 53l4 4m28-5l10.5 10.5M87 53l4 4" stroke="#aaaae5" class="M"/></g><use xlink:href="#B" fill="#8e072b"/><use xlink:href="#B" fill="#1d1952"/><path d="M60 93c5.2 0 9.8-2.5 12.7-6.3-2.3-2.2-5.4-3.6-8.8-3.6-5.3 0-9.8 3.3-11.7 7.9 2.4 1.3 5 2 7.8 2z" fill="#c02344"/><path d="M66 81H54c-1.1 0-2-.9-2-2v-2h16v2c0 1.1-.9 2-2 2zm0 7c-4 .5-8 .5-12 0-1.1 0-2 .9-2 2v.8c2.4 1.4 5.1 2.2 8 2.2s5.6-.8 8-2.1V90c0-1.1-.9-2-2-2z" fill="#fff"/><g fill="none" class="L M N"><g class="O"><path d="M115,65.4V93c0,8.3-6.7,15-15,15h0"/><path d="M100 108c-3-2-3-8-3-8m-4 7l4.7-.2M94 110l4.7-2.2M96 112c3.2-1.1 3.8-1.5 4-4"/></g><path d="M32 38h13m28-2h14" stroke="#c02344" class="P"/></g><defs ><path id="B" d="M72.6 77c1.9 0 3.4 1.8 3 3.7-1.7 7-8 12.3-15.6 12.3-7.5 0-13.8-5.2-15.5-12.2-.5-1.9 1-3.8 3-3.8h25.1z"/></defs></svg>