<svg xmlns="http://www.w3.org/2000/svg" viewBox="0 0 64 64" xmlns:v="https://vecta.io/nano"><g fill="#fbcab5"><rect height="13.22" rx="2.46" transform="matrix(.707107 -.707107 .707107 .707107 -6.16 23.44)" width="5.2" x="22.61" y="12.55"/><rect height="18.45" rx="2.46" transform="matrix(.707107 -.707107 .707107 .707107 -11.02 24.54)" width="5.2" x="21.51" y="16.35"/><rect height="10.62" rx="2.46" transform="matrix(.707107 -.707107 .707107 .707107 -19.21 22.69)" width="5.2" x="15.18" y="29.22"/><path d="M32.72 59.53h9.83v-8.26l7.37-7.56v-9.87l-9.36-9.9s-3.8-.6-3.77 0-2.46 3.08-.54 5 5.45 6.12 5.45 6.12l.15 5.2-9.52 13.13H22.9v6.12z"/></g><path fill="#e39f81" d="M22 53.47h8v6h-8z"/><g stroke-width="2" stroke-linejoin="round" stroke="#001c63" fill="none"><rect height="13.22" rx="2.46" transform="matrix(.707107 -.707107 .707107 .707107 -6.16 23.44)" width="5.2" x="22.61" y="12.55"/><rect height="10.62" rx="2.46" transform="matrix(.707107 -.707107 .707107 .707107 -19.21 22.69)" width="5.2" x="15.18" y="29.22"/><g stroke-linecap="round"><path d="M25.65 42.66H15.3a2.46 2.46 0 0 1-2.46-2.45v-.3a2.46 2.46 0 0 1 2.46-2.45h1.76"/><path d="M23.8 47.85h-6a2.46 2.46 0 0 1-2.46-2.45v-.3a2.46 2.46 0 0 1 2.46-2.45h5.12m4.73 5.2h-6.52a2.46 2.46 0 0 0-2.46 2.45v.3a2.46 2.46 0 0 0 2.46 2.4h11.2l5.83-6.94"/></g><rect height="18.45" rx="2.46" transform="matrix(.707107 -.707107 .707107 .707107 -11.02 24.54)" width="5.2" x="21.51" y="16.35"/></g><g transform="matrix(.707107 -.707107 .707107 .707107 -15.6 24.99)"><rect fill="#fbcab5" height="18.45" rx="2.46" width="5.2" x="19.77" y="22.1"/><rect height="18.45" rx="2.46" width="5.2" x="19.77" y="22.1" fill="none" stroke="#001c63" stroke-linejoin="round" stroke-width="2"/></g><path d="M42.55 59.53V52.2l6.93-7.32a6.12 6.12 0 0 0 1.68-4.2V35.9a3.61 3.61 0 0 0-1-2.53l-8.66-8.8a3.27 3.27 0 0 0-4.64 0h0a3.24 3.24 0 0 0 0 4.59L41.68 34a4.46 4.46 0 0 1 1 2.46 8.16 8.16 0 0 1-.3 3.54m.17-35.53v9.22A5.08 5.08 0 0 0 45 18h0a5.08 5.08 0 0 1 2.46 4.35v7.84M24.12 4.47v9.8m3.73 33.58l7.6-8.28M22.9 59.53V53.4" fill="none" stroke="#001c63" stroke-linejoin="round" stroke-width="2" stroke-linecap="round"/></svg>